# xmcd CD database file
#
# Track frame offsets:
#	182
#	15937
#	28185
#	42792
#	59585
#	78807
#	91942
#	109830
#	126025
#	141327
#	154907
#	174725
#
# Disc length: 2546 seconds
#
# Revision: 6
# Processed by: cddbd v1.5.2PL0 Copyright (c) Steve Scherf et al.
# Submitted via: CDex 1.51
#
DISCID=9609f00c
DTITLE=The Judds - The Judds - Number One Hits
DYEAR=1994
DGENRE=Country
TTITLE0=Why Not Me
TTITLE1=Rockin' With The Rhythm Of The Rain
TTITLE2=Mama He's Crazy
TTITLE3=Turn It Loose
TTITLE4=Grandpa (Tell Me 'Bout The Good Old Days)
TTITLE5=Girl's Night Out
TTITLE6=Love Is Alive
TTITLE7=Change Of Heart
TTITLE8=Have Mercy
TTITLE9=Let Me Tell You About Love
TTITLE10=Young Love (Strong Love)
TTITLE11=I Know Where I'm Going
EXTD=YEAR: 1994
EXTT0=
EXTT1=
EXTT2=
EXTT3=
EXTT4=
EXTT5=
EXTT6=
EXTT7=
EXTT8=
EXTT9=
EXTT10=
EXTT11=
PLAYORDER=
